name ./resultDataOpenSim/trcMotMarkerGrf/sub09/grf-01-01.mot
datacolumns 19
datarows 27
range 0.48800000 0.59200000
endheader

                time	     ground_force_vx	     ground_force_vy	     ground_force_vz	     ground_force_px	     ground_force_py	     ground_force_pz	   l_ground_force_vx	   l_ground_force_vy	   l_ground_force_vz	   l_ground_force_px	   l_ground_force_py	   l_ground_force_pz	     ground_torque_x	     ground_torque_y	     ground_torque_z	   l_ground_torque_x	   l_ground_torque_y	   l_ground_torque_z	
          0.48800000	         46.82290449	        568.09378957	        -22.99003423	         -0.67187670	          0.00000000	          0.14305438	          0.00000000	          0.00000000	          0.00000000	          0.00000000	          0.00000000	          0.00000000	          0.00000000	          4.52916422	          0.00000000	          0.00000000	          0.00000000	          0.00000000	
          0.49200000	         49.98973678	        579.88895522	        -25.33998806	         -0.67094946	          0.00000000	          0.14314514	          0.00000000	          0.00000000	          0.00000000	          0.00000000	          0.00000000	          0.00000000	          0.00000000	          4.36624685	          0.00000000	          0.00000000	          0.00000000	          0.00000000	
          0.49600000	         53.36883736	        591.50463015	        -27.86446692	         -0.66999897	          0.00000000	          0.14318067	          0.00000000	          0.00000000	          0.00000000	          0.00000000	          0.00000000	          0.00000000	          0.00000000	          4.13978749	          0.00000000	          0.00000000	          0.00000000	          0.00000000	
          0.50000000	         56.88133638	        602.89644186	        -30.15574628	         -0.66903888	          0.00000000	          0.14312765	          0.00000000	          0.00000000	          0.00000000	          0.00000000	          0.00000000	          0.00000000	          0.00000000	          3.91042201	          0.00000000	          0.00000000	          0.00000000	          0.00000000	
          0.50400000	         60.41503747	        614.06231585	        -31.84825074	         -0.66808938	          0.00000000	          0.14296072	          0.00000000	          0.00000000	          0.00000000	          0.00000000	          0.00000000	          0.00000000	          0.00000000	          3.74234198	          0.00000000	          0.00000000	          0.00000000	          0.00000000	
          0.50800000	         63.86938312	        625.02067891	        -32.69735690	         -0.66716254	          0.00000000	          0.14269031	          0.00000000	          0.00000000	          0.00000000	          0.00000000	          0.00000000	          0.00000000	          0.00000000	          3.68913846	          0.00000000	          0.00000000	          0.00000000	          0.00000000	
          0.51200000	         67.18559395	        635.80590821	        -32.60510073	         -0.66626355	          0.00000000	          0.14233247	          0.00000000	          0.00000000	          0.00000000	          0.00000000	          0.00000000	          0.00000000	          0.00000000	          3.78166169	          0.00000000	          0.00000000	          0.00000000	          0.00000000	
          0.51600000	         70.35590448	        646.45990278	        -31.61824125	         -0.66540029	          0.00000000	          0.14189595	          0.00000000	          0.00000000	          0.00000000	          0.00000000	          0.00000000	          0.00000000	          0.00000000	          4.02069006	          0.00000000	          0.00000000	          0.00000000	          0.00000000	
          0.52000000	         73.42014103	        657.00718092	        -29.91989280	         -0.66457009	          0.00000000	          0.14139544	          0.00000000	          0.00000000	          0.00000000	          0.00000000	          0.00000000	          0.00000000	          0.00000000	          4.37609179	          0.00000000	          0.00000000	          0.00000000	          0.00000000	
          0.52400000	         76.45569400	        667.43319144	        -27.79937496	         -0.66375894	          0.00000000	          0.14085581	          0.00000000	          0.00000000	          0.00000000	          0.00000000	          0.00000000	          0.00000000	          0.00000000	          4.79283843	          0.00000000	          0.00000000	          0.00000000	          0.00000000	
          0.52800000	         79.56110873	        677.68831877	        -25.59622529	         -0.66295370	          0.00000000	          0.14030351	          0.00000000	          0.00000000	          0.00000000	          0.00000000	          0.00000000	          0.00000000	          0.00000000	          5.20262850	          0.00000000	          0.00000000	          0.00000000	          0.00000000	
          0.53200000	         82.83253084	        687.71399706	        -23.63998920	         -0.66215067	          0.00000000	          0.13976641	          0.00000000	          0.00000000	          0.00000000	          0.00000000	          0.00000000	          0.00000000	          0.00000000	          5.53834990	          0.00000000	          0.00000000	          0.00000000	          0.00000000	
          0.53600000	         86.33911147	        697.47110308	        -22.19773585	         -0.66135617	          0.00000000	          0.13926772	          0.00000000	          0.00000000	          0.00000000	          0.00000000	          0.00000000	          0.00000000	          0.00000000	          5.74782438	          0.00000000	          0.00000000	          0.00000000	          0.00000000	
          0.54000000	         90.10896196	        706.94734426	        -21.42919018	         -0.66057569	          0.00000000	          0.13881922	          0.00000000	          0.00000000	          0.00000000	          0.00000000	          0.00000000	          0.00000000	          0.00000000	          5.80359259	          0.00000000	          0.00000000	          0.00000000	          0.00000000	
          0.54400000	         94.13124461	        716.13561287	        -21.35671083	         -0.65981534	          0.00000000	          0.13842157	          0.00000000	          0.00000000	          0.00000000	          0.00000000	          0.00000000	          0.00000000	          0.00000000	          5.70675246	          0.00000000	          0.00000000	          0.00000000	          0.00000000	
          0.54800000	         98.37086871	        725.00573022	        -21.86071497	         -0.65908123	          0.00000000	          0.13806909	          0.00000000	          0.00000000	          0.00000000	          0.00000000	          0.00000000	          0.00000000	          0.00000000	          5.48455149	          0.00000000	          0.00000000	          0.00000000	          0.00000000	
          0.55200000	        102.78802767	        733.49262432	        -22.70475995	         -0.65837473	          0.00000000	          0.13775371	          0.00000000	          0.00000000	          0.00000000	          0.00000000	          0.00000000	          0.00000000	          0.00000000	          5.18294930	          0.00000000	          0.00000000	          0.00000000	          0.00000000	
          0.55600000	        107.35564236	        741.49575002	        -23.58740713	         -0.65769534	          0.00000000	          0.13746495	          0.00000000	          0.00000000	          0.00000000	          0.00000000	          0.00000000	          0.00000000	          0.00000000	          4.85628458	          0.00000000	          0.00000000	          0.00000000	          0.00000000	
          0.56000000	        112.06895345	        748.88337109	        -24.20844439	         -0.65704589	          0.00000000	          0.13718629	          0.00000000	          0.00000000	          0.00000000	          0.00000000	          0.00000000	          0.00000000	          0.00000000	          4.55641207	          0.00000000	          0.00000000	          0.00000000	          0.00000000	
          0.56400000	        116.94343195	        755.50693413	        -24.33054939	         -0.65643248	          0.00000000	          0.13689596	          0.00000000	          0.00000000	          0.00000000	          0.00000000	          0.00000000	          0.00000000	          0.00000000	          4.32338647	          0.00000000	          0.00000000	          0.00000000	          0.00000000	
          0.56800000	        122.00285968	        761.22265995	        -23.82204558	         -0.65586109	          0.00000000	          0.13657461	          0.00000000	          0.00000000	          0.00000000	          0.00000000	          0.00000000	          0.00000000	          0.00000000	          4.17922598	          0.00000000	          0.00000000	          0.00000000	          0.00000000	
          0.57200000	        127.26174390	        765.91452293	        -22.67386168	         -0.65533105	          0.00000000	          0.13621083	          0.00000000	          0.00000000	          0.00000000	          0.00000000	          0.00000000	          0.00000000	          0.00000000	          4.12566143	          0.00000000	          0.00000000	          0.00000000	          0.00000000	
          0.57600000	        132.70811034	        769.50888500	        -20.98962136	         -0.65483097	          0.00000000	          0.13580153	          0.00000000	          0.00000000	          0.00000000	          0.00000000	          0.00000000	          0.00000000	          0.00000000	          4.14606786	          0.00000000	          0.00000000	          0.00000000	          0.00000000	
          0.58000000	        138.29549631	        771.96370823	        -18.95484538	         -0.65434225	          0.00000000	          0.13534935	          0.00000000	          0.00000000	          0.00000000	          0.00000000	          0.00000000	          0.00000000	          0.00000000	          4.21096566	          0.00000000	          0.00000000	          0.00000000	          0.00000000	
          0.58400000	        143.94744444	        773.23889961	        -16.79298880	         -0.65384351	          0.00000000	          0.13485771	          0.00000000	          0.00000000	          0.00000000	          0.00000000	          0.00000000	          0.00000000	          0.00000000	          4.28569824	          0.00000000	          0.00000000	          0.00000000	          0.00000000	
          0.58800000	        149.57089290	        773.27747792	        -14.71513210	         -0.65331377	          0.00000000	          0.13433251	          0.00000000	          0.00000000	          0.00000000	          0.00000000	          0.00000000	          0.00000000	          0.00000000	          4.33840630	          0.00000000	          0.00000000	          0.00000000	          0.00000000	
          0.59200000	        155.07072886	        772.00336139	        -12.87433118	         -0.65274010	          0.00000000	          0.13378337	          0.00000000	          0.00000000	          0.00000000	          0.00000000	          0.00000000	          0.00000000	          0.00000000	          4.34645982	          0.00000000	          0.00000000	          0.00000000	          0.00000000	
